<?xml version="1.0" encoding="utf-8"?>
<!-- Generator: Adobe Illustrator 24.1.3, SVG Export Plug-In . SVG Version: 6.00 Build 0)  -->
<svg version="1.1" id="Layer_1" xmlns="http://www.w3.org/2000/svg" xmlns:xlink="http://www.w3.org/1999/xlink" x="0px" y="0px"
	 viewBox="0 0 128 128" style="enable-background:new 0 0 128 128;" xml:space="preserve">
<style type="text/css">
	.st0{fill:#FD5750;}
</style>
<desc>Created with Sketch.</desc>
<g>
	<path class="st0" d="M32.7,127l-0.1-23.5l0.3-0.4c0.1-0.2,8.5-14.4,17-28.5l-25.1,4.1l0-2.2c0-7.5,0-10,0-10.7l-0.4-0.9l1-0.9
		c11.4-9.7,24-20.5,36.2-31c12.2-10.5,24.8-21.3,36.2-31l1.2-1l2,1.8l-0.2,20.1L88.1,44.2c5.2-0.6,12.4-1.4,12.5-1.4l2-0.2l0.2,21.3
		L32.7,127z M36.3,104.5l0,14.4l62.9-56.6L99,46.6c-3.6,0.4-11.1,1.2-14.2,1.6l-3.7,0.4l16.1-26.9l0.2-14.6
		C86.8,16.1,75.2,26,64,35.7C52,45.9,39.6,56.6,28.4,66.1c0,1.2,0,3.6,0,8.2l28.7-4.7L55,73C46.7,86.7,37.8,101.7,36.3,104.5z"/>
	<path class="st0" d="M100.8,44.8l-0.6-0.5c-0.7-0.6-0.7-0.6-6.7,0.1c-3.1,0.4-7.2,0.9-11.3,1.4c-2.8,0.3-5.5,0.7-7.9,1
		c4.1-6.5,9.8-15.5,15.1-24c2.8-4.5,5.4-8.6,7.2-11.6c3.5-5.6,3.5-5.6,3.1-6.5l-0.9-2.4l-1.9,1.6c-0.4,0.4-45.1,37.8-67.4,57.2
		l-4.8,4.1l34.6-5.3l-26.8,43.9L35,106l1.2-1.1c7.1-6.4,16.5-14.9,25.9-23.5c9.5-8.6,19-17.2,26.2-23.7c3.6-3.2,6.6-5.9,8.6-7.8
		c3.9-3.5,3.9-3.5,3.9-4.4L100.8,44.8z"/>
</g>
</svg>
